<svg width="4057" height="970.0000000000001" xmlns="http://www.w3.org/2000/svg" p-id="2101" version="1.1" class="icon" t="1680189483828">
 <g>
  <title>Layer 1</title>
  <path id="svg_1" p-id="2102" fill="#FFD581" d="m862.31579,476.07017c0,-5.56912 0.57488,-10.99452 1.65277,-16.24028c-51.70302,-144.52772 -188.38007,-244.25094 -351.96856,-244.25094s-300.26554,99.72322 -351.96856,244.25094c1.07789,5.24576 1.65277,10.67116 1.65277,16.24028l0,251.50878c0,1.05993 -0.26947,2.06596 -0.32337,3.10793c55.06246,140.07242 191.02091,239.41838 350.63916,239.41838c159.61825,0 295.5767,-99.34596 350.63916,-239.40042c-0.0539,-1.05993 -0.32337,-2.06596 -0.32337,-3.12589l0,-251.50878z"/>
  <path id="svg_2" p-id="2103" fill="#CB8252" d="m520.98246,898.24561c-79.24323,0 -143.7193,-64.47607 -143.7193,-143.7193a17.96491,17.96491 0 1 1 35.92982,0c0,59.4459 48.34358,107.78948 107.78948,107.78948s107.78947,-48.34358 107.78947,-107.78948a17.96491,17.96491 0 1 1 35.92982,0c0,79.24323 -64.47607,143.7193 -143.71929,143.7193z"/>
  <path id="svg_3" p-id="2104" fill="#B27821" d="m395.22807,628.77193m-35.92982,0a35.92983,35.92983 0 1 0 71.85964,0a35.92983,35.92983 0 1 0 -71.85964,0z"/>
  <path id="svg_4" p-id="2105" fill="#B27821" d="m646.73684,628.77193m-35.92982,0a35.92983,35.92983 0 1 0 71.85965,0a35.92983,35.92983 0 1 0 -71.85965,0z"/>
  <path id="svg_5" p-id="2106" fill="#AF8066" d="m879.99326,517.85656c-34.47466,-195.02709 -183.51158,-326.06316 -370.84968,-326.06316c-183.92477,0 -330.68014,131.03607 -365.15481,326.06316a17.96491,17.96491 0 0 0 12.97067,20.46204c2.87438,0.79045 71.69796,19.22245 166.58863,19.22245c93.20196,0 227.59747,-18.64758 338.72842,-107.41221c2.87439,-2.3534 4.43733,-1.04196 5.46133,0.44912c25.36646,37.79818 67.83551,101.0706 139.96464,101.0706c19.63565,0 40.43901,-4.79663 61.83522,-14.22821a17.96491,17.96491 0 0 0 10.45558,-19.56379z"/>
  <path id="svg_6" p-id="2107" fill="#8697CB" d="m80.84211,808.42105a81.07565,81.07565 0 0 1 -80.84211,-80.8421l0,-251.50878c0,-44.46315 36.37895,-80.8421 80.84211,-80.8421s80.8421,36.37895 80.8421,80.8421l0,251.50878c0,44.46315 -36.37895,80.8421 -80.8421,80.8421zm862.31579,0a81.07565,81.07565 0 0 1 -80.84211,-80.8421l0,-251.50878c0,-44.46315 36.37895,-80.8421 80.84211,-80.8421s80.8421,36.37895 80.8421,80.8421l0,251.50878c0,44.46315 -36.37895,80.8421 -80.8421,80.8421z"/>
  <path id="svg_7" p-id="2108" fill="#556080" d="m970.10526,413.19298l-35.92982,0c0,-222.11817 -173.59495,-377.26316 -422.17544,-377.26316s-422.17544,155.14499 -422.17544,377.26316l-35.92982,0c0,-239.41838 192.67368,-413.19298 458.10526,-413.19298s458.10526,173.7746 458.10526,413.19298z"/>
  <path stroke="#000" id="svg_14" d="m1861.55279,190.71767l373.52398,-4.95642l222.13133,331.38476l-301.87078,282.88943c2.74283,0.09934 -288.08886,13.03899 -293.78453,13.03899c-5.69568,0 -227.82701,-323.30222 -230.21757,-325.56446" opacity="NaN" stroke-dasharray="5,2,2,2,2,2" fill="#7AD6CA"/>
  <path transform="rotate(-0.393933 2956.42 481.696)" stroke="#000" id="svg_15" d="m2716.30594,143.75275l-2.29934,677.57087l484.82802,-7.89831l-375.26237,-84.24868l-43.82626,-587.108l-63.44005,1.68413z" opacity="NaN" stroke-dasharray="5,2,2,2,2,2" fill="#7AD6CA"/>
  <ellipse ry="0.96154" id="svg_19" cy="536.34487" cx="3028.8028" stroke-dasharray="5,2,2,2,2,2" stroke="#000" fill="#7AD6CA"/>
  <path stroke="#000" id="svg_22" d="m3327.40013,195.5469l8.16007,722.63319l88.27273,-26.34938l-12.61039,-451.23319l239.59741,-39.52407l121.90044,-144.92161l-84.06927,-181.15201l-239.59741,6.58735l-121.65358,113.95972z" opacity="NaN" stroke-dasharray="5,2,2,2,2,2" fill="#7AD6CA"/>
 </g>

</svg>